<svg xmlns="http://www.w3.org/2000/svg" viewBox="0 0 145 35" width="145" height="35"><g fill-rule="evenodd"><path d="M0 34.36V8.75h5.017v25.61H0m29.312 0V18.006c0-3.553-2.3-5.33-6.898-5.33-2.612 0-4.642.688-6.087 2.064-1.446 1.375-2.17 3.178-2.17 5.408V34.36H9.143V8.757h5.016v1.725c2.19-1.497 4.93-2.246 8.2-2.246 3.34 0 6.09.73 8.25 2.194 2.47 1.672 3.71 4.04 3.71 7.107V34.36h-5.01m22.93 0h-3.81L34.84 8.86h5.75l9.666 18.655L59.25 8.86h5.487l-12.49 25.5m62.65 0V18.006c0-3.553-2.3-5.33-6.9-5.33-2.612 0-4.64.688-6.087 2.064-1.445 1.375-2.168 3.178-2.168 5.408V34.36h-5.017V8.757h5.017v1.725c2.194-1.497 4.93-2.246 8.204-2.246 3.344 0 6.096.73 8.256 2.194 2.473 1.672 3.71 4.04 3.71 7.107V34.36h-5.016m17.554-21.044V34.36h-4.912l.003-21.042-5.33-.002V8.77h5.33V2.277h4.92V8.77h5.28v4.546h-5.28m7.53 21.045V8.74H145v25.62h-5.017" fill="#63008b"/><path d="M0 5.442h5.017V.422H0v5.02m139.972 0h5.016V.422h-5.016v5.02" fill="#6bb201"/><path d="M78.1 7.88c10.167-.03 14.55 5.977 14.55 13.35 0 .678-.034 1.345-.103 1.996h-5.17v-.002h-18.65c.66 3.844 3.396 6.697 9.325 6.713 4.864.013 7.58-1.92 8.763-4.74h5.404c-1.28 5.443-5.5 9.408-14.12 9.383-10.61-.028-14.55-5.976-14.55-13.35S67.93 7.908 78.1 7.88m-9.27 10.93h18.444c-.846-3.636-3.75-6.303-9.223-6.287-5.47.016-8.37 2.66-9.22 6.288" fill="#63008b"/></g></svg>